<svg width="69" height="68" viewBox="0 0 69 68" fill="none" xmlns="http://www.w3.org/2000/svg">
<rect x="0.333374" width="68" height="68" rx="34" fill="#F5F5F5"/>
<path d="M47.964 26.815C46.689 25.405 44.559 24.7 41.469 24.7H41.109V24.64C41.109 22.12 41.109 19 35.469 19H33.189C27.549 19 27.549 22.135 27.549 24.64V24.715H27.189C24.084 24.715 21.969 25.42 20.694 26.83C19.209 28.48 19.254 30.7 19.404 32.215L19.419 32.32L19.5352 33.5399C19.5566 33.7646 19.6776 33.9675 19.8664 34.0911C20.2262 34.3265 20.8282 34.7145 21.189 34.915C21.399 35.05 21.624 35.17 21.849 35.29C24.414 36.7 27.234 37.645 30.099 38.11C30.234 39.52 30.849 41.17 34.134 41.17C37.419 41.17 38.064 39.535 38.169 38.08C41.229 37.585 44.184 36.52 46.854 34.96C46.944 34.915 47.004 34.87 47.079 34.825C47.6741 34.4887 48.2915 34.0742 48.8542 33.6683C49.0238 33.546 49.1322 33.3569 49.1552 33.1491L49.179 32.935L49.254 32.23C49.269 32.14 49.269 32.065 49.284 31.96C49.404 30.445 49.374 28.375 47.964 26.815ZM35.964 37.09C35.964 38.68 35.964 38.92 34.119 38.92C32.274 38.92 32.274 38.635 32.274 37.105V35.215H35.964V37.09ZM29.694 24.64C29.694 22.09 29.694 21.145 33.189 21.145H35.469C38.964 21.145 38.964 22.105 38.964 24.64V24.715H29.694V24.64Z" fill="#171717"/>
<path d="M47.6392 36.9463C48.1696 36.6939 48.7805 37.1143 48.7274 37.6993L48.189 43.63C47.874 46.63 46.644 49.69 40.044 49.69H28.614C22.014 49.69 20.784 46.63 20.469 43.645L19.958 38.0233C19.9054 37.4451 20.5023 37.0251 21.0313 37.2644C22.7404 38.0377 25.8951 39.4096 27.8439 39.92C28.0904 39.9846 28.2897 40.161 28.3976 40.3917C29.3081 42.3389 31.2827 43.375 34.134 43.375C36.9572 43.375 38.9568 42.299 39.8702 40.3471C39.9783 40.1161 40.1779 39.9398 40.4245 39.8749C42.4938 39.3304 45.8517 37.7969 47.6392 36.9463Z" fill="#171717"/>
</svg>
